<?xml version="1.0" encoding="utf-8"?>
<!-- Generator: Adobe Illustrator 15.0.0, SVG Export Plug-In . SVG Version: 6.00 Build 0)  -->
<!DOCTYPE svg PUBLIC "-//W3C//DTD SVG 1.0//EN" "http://www.w3.org/TR/2001/REC-SVG-20010904/DTD/svg10.dtd">
<svg version="1.0" id="Layer_1" xmlns="http://www.w3.org/2000/svg" xmlns:xlink="http://www.w3.org/1999/xlink" x="0px" y="0px"
	 width="171.1px" height="172.9px" viewBox="0 0 171.1 172.9" enable-background="new 0 0 171.1 172.9" xml:space="preserve">
<g>
	<ellipse fill-rule="evenodd" clip-rule="evenodd" fill="#EEEEEE" cx="85.6" cy="86.4" rx="76.2" ry="77"/>
</g>
<g>
	<path fill="#FFFFFF" d="M85.6,86.4l74.5,9.8c0.4-3.2,0.6-6.5,0.6-9.8H85.6z"/>
	<path fill="#FFFFFF" d="M85.6,11.3v75.2l9.8-74.5C92.2,11.5,88.9,11.3,85.6,11.3z"/>
	<path fill="#FFFFFF" d="M105,13.8L85.6,86.4l0,0L114.3,17C111.3,15.7,108.2,14.7,105,13.8z"/>
	<path fill="#FFFFFF" d="M123.1,21.3L85.6,86.4l45.8-59.6C128.7,24.8,126,23,123.1,21.3z"/>
	<path fill="#FFFFFF" d="M39.8,26.8c-2.6,2-5.1,4.2-7.4,6.5l53.2,53.2L25.9,40.7c-2,2.6-3.8,5.3-5.5,8.2l65.1,37.6l0,0L39.8,26.8z"
		/>
	<path fill="#FFFFFF" d="M56.8,17c-3,1.3-6,2.7-8.8,4.4l37.6,65.1L56.8,17z"/>
	<polygon fill="#FFFFFF" points="85.6,86.4 85.6,86.4 85.6,86.4 	"/>
	<path fill="#FFFFFF" d="M66.1,13.8l19.5,72.6l-9.8-74.5C72.5,12.3,69.2,13,66.1,13.8z"/>
	<path fill="#FFFFFF" d="M145.2,40.7c-2-2.6-4.2-5.1-6.5-7.4L85.6,86.4L145.2,40.7z"/>
	<path fill="#FFFFFF" d="M155,57.7c-1.3-3-2.7-6-4.4-8.8L85.6,86.4L155,57.7z"/>
	<path fill="#FFFFFF" d="M158.2,67L85.6,86.4l74.5-9.8C159.7,73.3,159,70.1,158.2,67z"/>
	<path fill="#FFFFFF" d="M105,159.1L85.6,86.4l9.8,74.5C98.7,160.5,101.9,159.9,105,159.1z"/>
	<path fill="#FFFFFF" d="M114.3,155.9c3-1.3,6-2.7,8.8-4.4L85.6,86.4v0L114.3,155.9z"/>
	<path fill="#FFFFFF" d="M85.6,161.6V86.4L75.7,161C79,161.4,82.2,161.6,85.6,161.6z"/>
	<path fill="#FFFFFF" d="M131.3,146.1c2.6-2,5.1-4.2,7.4-6.5L85.6,86.4L131.3,146.1z"/>
	<path fill="#FFFFFF" d="M85.6,86.4L85.6,86.4l69.5,28.8c1.2-3,2.3-6.1,3.2-9.3L85.6,86.4L85.6,86.4z"/>
	<path fill="#FFFFFF" d="M145.2,132.2c2-2.6,3.8-5.3,5.5-8.2L85.6,86.4L145.2,132.2z"/>
	<path fill="#FFFFFF" d="M32.4,139.6l53.2-53.2v0l-59.6,45.8C27.9,134.8,30.1,137.3,32.4,139.6z"/>
	<path fill="#FFFFFF" d="M85.6,86.4L11,76.6c-0.4,3.2-0.6,6.5-0.6,9.8H85.6L85.6,86.4L85.6,86.4z"/>
	<path fill="#FFFFFF" d="M12.9,105.9l72.6-19.5L11,96.2C11.5,99.5,12.1,102.8,12.9,105.9z"/>
	<path fill="#FFFFFF" d="M16.1,57.7c-1.2,3-2.3,6.1-3.2,9.3l72.6,19.5L16.1,57.7z"/>
	<path fill="#FFFFFF" d="M66.1,159.1l19.5-72.6l-28.8,69.5C59.8,157.1,62.9,158.2,66.1,159.1z"/>
	<path fill="#FFFFFF" d="M39.8,146.1c2.6,2,5.3,3.8,8.2,5.5l37.6-65.1l0,0L39.8,146.1z"/>
	<path fill="#FFFFFF" d="M20.5,124l65.1-37.6l-69.5,28.8C17.4,118.3,18.8,121.2,20.5,124z"/>
</g>
<g>
	<path fill-rule="evenodd" clip-rule="evenodd" d="M86.5,66c1.8-1.6,8.9-9.1,9.9-11.5c-2.2-2.8-5.9-6.1-9-8.4
		c-0.4,0-11.7,11.4-11.8,13C77.3,61.1,84.2,64.7,86.5,66z"/>
	<path fill-rule="evenodd" clip-rule="evenodd" d="M95.7,72.5c0.3,1.9-1.9,6.5-1.3,7.2c1,1.1,10.5-9,13.1-12.9
		c-1.6-2.7-7.3-10.1-9.6-10.4c-2,1.9-8.5,8.9-9.2,11.3C90.6,69.4,94.1,70.4,95.7,72.5z"/>
	<path fill-rule="evenodd" clip-rule="evenodd" d="M86.8,117.8c1.2-1.2,3.4-1.2,4.1-3.1c-1.4-4.3-10.6-26.7-11.4-27.5
		c-0.5-0.5-9.5-4.3-9.2-5.6c1.3-0.5,3.4,0.2,4.5-0.5c0.7-2.8-1.7-4.7-0.6-6.7c1.9,2.4,4.3,5.3,5.8,5.9c1.6,0.6,10.3,0.6,12.1,0.1
		c1.1-1.8,1.7-4.3,2-7.1C91.3,70.7,74,60.1,71.8,59.8c-3.2,3.4-19.1,20.3-19.3,21.6c-0.1,0.7,15.2,32.5,17.2,36.3
		c0,1-8.3,28.6-10,37.6c7.8,2,15,2.6,21.8,2.4C83.8,148,88,129.3,90,119C89.2,117.7,87,119.6,86.8,117.8z"/>
	<path fill-rule="evenodd" clip-rule="evenodd" d="M98.3,94.4c0.9,0,18.1-14.7,18.2-15.9c0.1-1.6-4.3-7.9-7.8-10.1
		c-2.2,2.2-18.1,17.8-19.2,20.5C90,90,97.3,94.4,98.3,94.4z"/>
	<path fill-rule="evenodd" clip-rule="evenodd" d="M118.1,80.5c-2,1.6-16.7,13.7-17.7,15.3c0.3,1.4,4,5.6,4.9,6.7
		c1.8-0.6,18.4-10.3,19.3-12.3C123,86.7,120.6,82.8,118.1,80.5z"/>
	<path fill-rule="evenodd" clip-rule="evenodd" d="M76.2,82c-0.8,0.6,8.8,5.4,10.2,5.7c0.9-0.3,4-2.7,5.1-5.2
		C87.4,83,77.5,81.9,76.2,82z"/>
	<path fill-rule="evenodd" clip-rule="evenodd" d="M105.4,104.5c-1.9-1.1-5.5-5.6-6.8-7c-1.7-1.8-10.2-7-15.6-8.8
		c0.1,2,12.2,28.5,12.4,31.3c-1.2-0.2-2.1-1.6-3.2-0.8c-1.5,4.9-7.5,34-8.5,39c4.2,1,10.4,2.1,14.1,1.7c1.7-7.7,3.3-24.8,4.9-34.5
		c7.9-5.3,13-14.8,15.6-26.9C119.3,96.1,107.6,104,105.4,104.5z"/>
</g>
<g>
	<g>
		<g>
			<path fill-rule="evenodd" clip-rule="evenodd" d="M48.3,77.9c0,0.5-0.4,0.9-0.9,0.9H16.8c-0.5,0-0.9-0.4-0.9-0.9v-7.5
				c0-0.5,0.4-0.9,0.9-0.9h30.6c0.5,0,0.9,0.4,0.9,0.9V77.9z"/>
		</g>
		<g>
			<path fill-rule="evenodd" clip-rule="evenodd" d="M155.2,77.9c0,0.5-0.4,0.9-0.9,0.9h-30.6c-0.5,0-0.9-0.4-0.9-0.9v-7.5
				c0-0.5,0.4-0.9,0.9-0.9h30.6c0.5,0,0.9,0.4,0.9,0.9V77.9z"/>
		</g>
	</g>
</g>
<g>
	<path fill="#BB2222" d="M85.6,18c37.3,0,67.6,30.7,67.6,68.4c0,37.7-30.3,68.4-67.6,68.4c-37.3,0-67.6-30.7-67.6-68.4
		C18,48.7,48.3,18,85.6,18 M85.6,0C38.3,0,0,38.7,0,86.4c0,47.7,38.3,86.4,85.6,86.4s85.6-38.7,85.6-86.4C171.1,38.7,132.8,0,85.6,0
		L85.6,0z"/>
</g>
</svg>
