<?xml version="1.0" encoding="utf-8"?>
<!-- Generator: Adobe Illustrator 15.0.0, SVG Export Plug-In . SVG Version: 6.00 Build 0)  -->
<!DOCTYPE svg PUBLIC "-//W3C//DTD SVG 1.0//EN" "http://www.w3.org/TR/2001/REC-SVG-20010904/DTD/svg10.dtd">
<svg version="1.0" id="Layer_1" xmlns="http://www.w3.org/2000/svg" xmlns:xlink="http://www.w3.org/1999/xlink" x="0px" y="0px"
	 width="170px" height="170px" viewBox="0 0 170 170" enable-background="new 0 0 170 170" xml:space="preserve">
<g>
	<g>
		<ellipse fill-rule="evenodd" clip-rule="evenodd" fill="#EEEEEE" cx="85" cy="85" rx="74.1" ry="74.8"/>
	</g>
	<g>
		<path fill="#FFFFFF" d="M85,85l72.4,9.5c0.4-3.1,0.6-6.3,0.6-9.5H85z"/>
		<path fill="#FFFFFF" d="M85,12v73l9.5-72.4C91.4,12.2,88.2,12,85,12z"/>
		<path fill="#FFFFFF" d="M103.9,14.4L85,85l0,0l28-67.5C110,16.3,107,15.3,103.9,14.4z"/>
		<path fill="#FFFFFF" d="M121.5,21.7L85,85l44.5-58C126.9,25.1,124.3,23.3,121.5,21.7z"/>
		<path fill="#FFFFFF" d="M40.5,27c-2.5,1.9-4.9,4-7.2,6.3L85,85L27,40.5c-1.9,2.5-3.7,5.2-5.3,7.9L85,85l0,0L40.5,27z"/>
		<path fill="#FFFFFF" d="M57,17.5c-3,1.2-5.8,2.6-8.6,4.2L85,85L57,17.5z"/>
		<polygon fill="#FFFFFF" points="85,85 85,85 85,85 		"/>
		<path fill="#FFFFFF" d="M66.1,14.4L85,85l-9.5-72.4C72.3,13,69.1,13.6,66.1,14.4z"/>
		<path fill="#FFFFFF" d="M143,40.5c-1.9-2.5-4-4.9-6.3-7.2L85,85L143,40.5z"/>
		<path fill="#FFFFFF" d="M152.5,57c-1.2-3-2.6-5.8-4.2-8.6L85,85L152.5,57z"/>
		<path fill="#FFFFFF" d="M155.6,66.1L85,85l72.4-9.5C157,72.3,156.4,69.1,155.6,66.1z"/>
		<path fill="#FFFFFF" d="M103.9,155.6L85,85l9.5,72.4C97.7,157,100.9,156.4,103.9,155.6z"/>
		<path fill="#FFFFFF" d="M113,152.5c3-1.2,5.8-2.6,8.6-4.2L85,85v0L113,152.5z"/>
		<path fill="#FFFFFF" d="M85,158V85l-9.5,72.4C78.6,157.8,81.8,158,85,158z"/>
		<path fill="#FFFFFF" d="M129.5,143c2.5-1.9,4.9-4,7.2-6.3L85,85L129.5,143z"/>
		<path fill="#FFFFFF" d="M85,85L85,85l67.5,28c1.2-2.9,2.2-5.9,3.1-9.1L85,85L85,85z"/>
		<path fill="#FFFFFF" d="M143,129.5c1.9-2.5,3.7-5.2,5.3-7.9L85,85L143,129.5z"/>
		<path fill="#FFFFFF" d="M33.3,136.7L85,85v0l-58,44.5C29,132,31.1,134.4,33.3,136.7z"/>
		<path fill="#FFFFFF" d="M85,85l-72.4-9.5C12.2,78.6,12,81.8,12,85H85L85,85L85,85z"/>
		<path fill="#FFFFFF" d="M14.4,103.9L85,85l-72.4,9.5C13,97.7,13.6,100.9,14.4,103.9z"/>
		<path fill="#FFFFFF" d="M17.5,57c-1.2,2.9-2.2,5.9-3.1,9L85,85L17.5,57z"/>
		<path fill="#FFFFFF" d="M66.1,155.6L85,85l-28,67.5C60,153.7,63,154.7,66.1,155.6z"/>
		<path fill="#FFFFFF" d="M40.5,143c2.5,1.9,5.2,3.7,7.9,5.3L85,85l0,0L40.5,143z"/>
		<path fill="#FFFFFF" d="M21.7,121.5L85,85l-67.5,28C18.7,115.9,20.1,118.8,21.7,121.5z"/>
	</g>
	<g>
		<path fill-rule="evenodd" clip-rule="evenodd" d="M85.9,65.2c1.7-1.6,7.5-8.8,9.2-11.4c-2.1-2.7-5.3-5.7-8.4-7.9
			c-0.4,0-11.3,11.1-11.5,12.6C77,60.4,83.7,63.9,85.9,65.2z"/>
		<path fill-rule="evenodd" clip-rule="evenodd" d="M95,71c0.2,1.9-1.5,5.4-0.9,6.1c1.3-0.2,9.3-9,11.7-11.5
			c-1.6-2.6-6.6-9.6-8.8-9.9c-1.9,1.8-7.5,8.4-8.6,10.5C90.1,67.7,93,69.5,95,71z"/>
		<path fill-rule="evenodd" clip-rule="evenodd" d="M86.2,115.5c1.2-1.2,3.3-1.1,4-3c-1.4-4.2-10.3-26-11.1-26.7
			c-0.5-0.5-9.2-4.2-8.9-5.4c1.2-0.5,3.3,0.2,4.3-0.5c0.7-2.7-1.6-4.5-0.6-6.5c1.8,2.4,4.2,5.2,5.7,5.7c1.6,0.6,9.7,0.4,11.4,0
			c1.1-1.8,1.5-3.9,1.9-6.6c-2.8-2.6-19.2-13-21.4-13.3c-3.1,3.3-18.6,19.8-18.8,21c-0.1,0.6,14.8,31.6,16.7,35.3
			c0,0.9-8.1,27.8-9.7,36.5c7.6,1.9,14.6,2.5,21.2,2.3c2.4-9.5,6.4-27.6,8.3-37.7C88.6,115.4,86.4,117.2,86.2,115.5z"/>
		<path fill-rule="evenodd" clip-rule="evenodd" d="M97.3,92.5c3.9-3,17.3-14.5,17.4-15.6c0.1-1.5-3.8-7.3-7.2-9.5
			c-2.1,2.2-17.3,17.4-18.4,20.1C89.6,88.6,95.1,92,97.3,92.5z"/>
		<path fill-rule="evenodd" clip-rule="evenodd" d="M116.6,79.2c-2,1.6-15.9,13.8-16.9,15.4c0.6,1.4,3.6,5,4.4,6
			c1.7-0.6,17.9-10,18.8-11.9C121.4,85.3,119.1,81.5,116.6,79.2z"/>
		<path fill-rule="evenodd" clip-rule="evenodd" d="M75.9,80.7c-0.8,0.6,8.5,5.2,9.9,5.6c0.9-0.3,3.9-2.6,4.9-5
			C86.8,81.6,77.1,80.6,75.9,80.7z"/>
		<path fill-rule="evenodd" clip-rule="evenodd" d="M104,103.1c-1.8-1-5.1-5.9-6.4-7.3C96,94,87.8,89,82.5,87.2
			c0.1,2,11.9,27.7,12,30.4c-1.1-0.2-2-1.5-3.1-0.8c-1.5,4.7-7.3,33.1-8.3,37.9c4.1,1,10.1,2.1,13.7,1.6c1.6-7.5,3.2-24.1,4.8-33.6
			c7.7-5.1,12.5-13.7,15.1-25.5C117.7,95,106.1,102.6,104,103.1z"/>
	</g>
	<g>
		<g>
			<g>
				<path fill-rule="evenodd" clip-rule="evenodd" d="M48.8,76.7c0,0.5-0.4,0.9-0.9,0.9H18.2c-0.5,0-0.9-0.4-0.9-0.9v-7.3
					c0-0.5,0.4-0.9,0.9-0.9h29.7c0.5,0,0.9,0.4,0.9,0.9V76.7z"/>
			</g>
			<g>
				<path fill-rule="evenodd" clip-rule="evenodd" d="M152.7,76.7c0,0.5-0.4,0.9-0.9,0.9h-29.7c-0.5,0-0.9-0.4-0.9-0.9v-7.3
					c0-0.5,0.4-0.9,0.9-0.9h29.7c0.5,0,0.9,0.4,0.9,0.9V76.7z"/>
			</g>
		</g>
	</g>
	<g>
		<path fill="#BB2222" d="M85,18.5c36.2,0,65.7,29.8,65.7,66.5s-29.5,66.5-65.7,66.5c-36.2,0-65.7-29.8-65.7-66.5S48.8,18.5,85,18.5
			 M85,1C39.1,1,1.9,38.6,1.9,85c0,46.4,37.2,84,83.1,84s83.1-37.6,83.1-84C168.1,38.6,130.9,1,85,1L85,1z"/>
	</g>
</g>
</svg>
