<?xml version="1.0" encoding="utf-8"?>
<!-- Generator: Adobe Illustrator 15.0.0, SVG Export Plug-In . SVG Version: 6.00 Build 0)  -->
<!DOCTYPE svg PUBLIC "-//W3C//DTD SVG 1.0//EN" "http://www.w3.org/TR/2001/REC-SVG-20010904/DTD/svg10.dtd">
<svg version="1.0" id="Layer_1" xmlns="http://www.w3.org/2000/svg" xmlns:xlink="http://www.w3.org/1999/xlink" x="0px" y="0px"
	 width="171.1px" height="172.9px" viewBox="0 0 171.1 172.9" enable-background="new 0 0 171.1 172.9" xml:space="preserve">
<g>
	<ellipse fill-rule="evenodd" clip-rule="evenodd" fill="#EEEEEE" cx="85.6" cy="86.4" rx="74.9" ry="75.7"/>
</g>
<g>
	<path fill="#FFFFFF" d="M85.6,86.4l73.3,9.6c0.4-3.2,0.6-6.4,0.6-9.6H85.6z"/>
	<path fill="#FFFFFF" d="M85.6,12.5v73.9l9.6-73.3C92.1,12.7,88.8,12.5,85.6,12.5z"/>
	<path fill="#FFFFFF" d="M104.7,15L85.6,86.4l0,0l28.3-68.3C110.9,16.9,107.8,15.9,104.7,15z"/>
	<path fill="#FFFFFF" d="M122.5,22.4l-37,64l45-58.6C128,25.8,125.3,24,122.5,22.4z"/>
	<path fill="#FFFFFF" d="M40.6,27.8c-2.6,2-5,4.1-7.3,6.4l52.3,52.3l-58.6-45c-2,2.6-3.8,5.2-5.4,8l64,37l0,0L40.6,27.8z"/>
	<path fill="#FFFFFF" d="M57.3,18.1c-3,1.2-5.9,2.7-8.7,4.3l37,64L57.3,18.1z"/>
	<polygon fill="#FFFFFF" points="85.6,86.4 85.6,86.4 85.6,86.4 	"/>
	<path fill="#FFFFFF" d="M66.4,15l19.1,71.4l-9.6-73.3C72.7,13.6,69.5,14.2,66.4,15z"/>
	<path fill="#FFFFFF" d="M144.2,41.4c-2-2.6-4.1-5-6.4-7.3L85.6,86.4L144.2,41.4z"/>
	<path fill="#FFFFFF" d="M153.9,58.1c-1.2-3-2.7-5.9-4.3-8.7l-64,37L153.9,58.1z"/>
	<path fill="#FFFFFF" d="M157,67.3L85.6,86.4l73.3-9.6C158.4,73.6,157.8,70.4,157,67.3z"/>
	<path fill="#FFFFFF" d="M104.7,157.8L85.6,86.4l9.6,73.3C98.4,159.3,101.6,158.7,104.7,157.8z"/>
	<path fill="#FFFFFF" d="M113.9,154.7c3-1.2,5.9-2.7,8.7-4.3l-37-64v0L113.9,154.7z"/>
	<path fill="#FFFFFF" d="M85.6,160.4V86.4l-9.6,73.3C79.1,160.1,82.3,160.4,85.6,160.4z"/>
	<path fill="#FFFFFF" d="M130.6,145.1c2.6-2,5-4.1,7.3-6.4L85.6,86.4L130.6,145.1z"/>
	<path fill="#FFFFFF" d="M85.6,86.4L85.6,86.4l68.3,28.3c1.2-3,2.3-6,3.1-9.2L85.6,86.4L85.6,86.4z"/>
	<path fill="#FFFFFF" d="M144.2,131.4c2-2.6,3.8-5.2,5.4-8l-64-37L144.2,131.4z"/>
	<path fill="#FFFFFF" d="M33.3,138.7l52.3-52.3v0l-58.6,45C28.9,134,31,136.4,33.3,138.7z"/>
	<path fill="#FFFFFF" d="M85.6,86.4l-73.3-9.6c-0.4,3.2-0.6,6.4-0.6,9.6H85.6L85.6,86.4L85.6,86.4z"/>
	<path fill="#FFFFFF" d="M14.1,105.6l71.4-19.1l-73.3,9.6C12.7,99.3,13.3,102.5,14.1,105.6z"/>
	<path fill="#FFFFFF" d="M17.3,58.1c-1.2,3-2.3,6-3.1,9.2l71.4,19.1L17.3,58.1z"/>
	<path fill="#FFFFFF" d="M66.4,157.8l19.1-71.4l-28.3,68.3C60.2,156,63.3,157,66.4,157.8z"/>
	<path fill="#FFFFFF" d="M40.6,145.1c2.6,2,5.2,3.8,8,5.4l37-64l0,0L40.6,145.1z"/>
	<path fill="#FFFFFF" d="M21.5,123.4l64-37l-68.3,28.3C18.5,117.7,19.9,120.6,21.5,123.4z"/>
</g>
<g>
	<path fill-rule="evenodd" clip-rule="evenodd" d="M86.3,64.9c1.7-1.6,7.5-7.6,9.2-10.2c-2.2-2.7-5.1-5.6-8.2-7.9
		c-0.4,0-10.7,9.9-10.9,11.4C78.5,60.2,84,63.6,86.3,64.9z"/>
	<path fill-rule="evenodd" clip-rule="evenodd" d="M95.8,71.7c0.2,1.9-0.7,5.1-0.1,5.8c1.3-0.2,8.4-8.6,10.7-11.1
		c-1.6-2.6-6.2-8.9-8.5-9.2c-1.9,1.8-7.1,8-8.2,10.1C91.5,68.8,93.8,70.2,95.8,71.7z"/>
	<path fill-rule="evenodd" clip-rule="evenodd" d="M86.8,117.3c1.2-1.2,3.4-1.1,4-3.1C89.4,110,80.5,88,79.7,87.2
		c-0.5-0.5-9.4-4.2-9.1-5.5c1.2-0.5,3.4,0.2,4.4-0.5c0.7-2.7-1.4-5-0.3-7c1.8,2.4,4.5,4.1,6,4.7c1.6,0.6,9.1,1.9,10.8,1.5
		c1.1-1.8,1.2-4,1.5-6.8c-2.8-2.6-19.3-12.7-21.5-13C68.3,64,53.2,80.2,53,81.5c-0.1,0.6,15,32,16.9,35.7c0,1-8.2,28.2-9.9,37
		c7.7,1.9,14.8,2.5,21.4,2.3c2.4-9.6,6.5-28,8.4-38.1C89.2,117.2,87,119,86.8,117.3z"/>
	<path fill-rule="evenodd" clip-rule="evenodd" d="M98.3,93.2c4-3,16.8-14.1,16.9-15.2c0.1-1.5-3-6.8-6.4-9
		c-2.1,2.2-16.8,17-17.9,19.7C91.4,89.7,96.1,92.6,98.3,93.2z"/>
	<path fill-rule="evenodd" clip-rule="evenodd" d="M117.9,80.7c-2,1.6-15.5,13.3-16.5,14.9c0.6,1.4,2.9,4.6,3.8,5.7
		c1.8-0.6,17.5-9.5,18.4-11.5C122,86.5,120.5,83,117.9,80.7z"/>
	<path fill-rule="evenodd" clip-rule="evenodd" d="M78.6,82c0.1,1,6.5,4.6,8,4.9c1.1-0.9,1.9-1.3,4.1-3.8
		C86.6,83.6,79.9,81.9,78.6,82z"/>
	<path fill-rule="evenodd" clip-rule="evenodd" d="M104.8,104.7c-1.9-1-5.1-6-6.4-7.4c-1.7-1.8-13.5-8.3-14.7-8.2
		c-0.4,0.9,11.6,27.6,11.7,30.4c-1.1-0.2-2.3-1.6-3.4-0.9c-1.5,4.8-7.4,33.5-8.4,38.4c4.2,1,10.2,2.1,13.9,1.7
		c1.6-7.6,3.3-24.4,4.8-34c7.8-5.2,12.6-13.9,15.3-25.8C118.6,96.6,106.9,104.2,104.8,104.7z"/>
</g>
<g>
	<g>
		<g>
			<path fill-rule="evenodd" clip-rule="evenodd" d="M48.9,78c0,0.5-0.4,0.9-0.9,0.9H18c-0.5,0-0.9-0.4-0.9-0.9v-7.4
				c0-0.5,0.4-0.9,0.9-0.9H48c0.5,0,0.9,0.4,0.9,0.9V78z"/>
		</g>
		<g>
			<path fill-rule="evenodd" clip-rule="evenodd" d="M154,78c0,0.5-0.4,0.9-0.9,0.9h-30.1c-0.5,0-0.9-0.4-0.9-0.9v-7.4
				c0-0.5,0.4-0.9,0.9-0.9h30.1c0.5,0,0.9,0.4,0.9,0.9V78z"/>
		</g>
	</g>
</g>
<g>
	<path fill="#BB2222" d="M85.6,19.1c36.6,0,66.4,30.2,66.4,67.3s-29.8,67.3-66.4,67.3c-36.6,0-66.4-30.2-66.4-67.3
		S48.9,19.1,85.6,19.1 M85.6,1.4c-46.5,0-84.1,38.1-84.1,85c0,46.9,37.7,85,84.1,85s84.1-38.1,84.1-85C169.7,39.5,132,1.4,85.6,1.4
		L85.6,1.4z"/>
</g>
</svg>
